<?xml version="1.0" encoding="utf-8"?>
<!-- Generator: Adobe Illustrator 16.2.0, SVG Export Plug-In . SVG Version: 6.00 Build 0)  -->
<!DOCTYPE svg PUBLIC "-//W3C//DTD SVG 1.1//EN" "http://www.w3.org/Graphics/SVG/1.1/DTD/svg11.dtd">
<svg version="1.1" id="Ebene_1" xmlns="http://www.w3.org/2000/svg" xmlns:xlink="http://www.w3.org/1999/xlink" x="0px" y="0px"
	 width="70px" height="140px" viewBox="0 0 70 140" enable-background="new 0 0 70 140" xml:space="preserve">
<title>Eventlokale Quadrat</title>
<desc>Created with Sketch.</desc>
<path id="Fill-1-Copy" fill="#FFFFFF" d="M34.999,22.386c-7.084,0-12.849,5.698-12.849,12.701c0,7.024,5.767,12.527,13.128,12.527
	c5.945,0,10.21-2.87,12.015-8.082l0.379-1.099h-3.67l-0.214,0.551c-1.39,3.543-4.251,5.338-8.51,5.338
	c-5.148,0-9.128-3.592-9.575-8.483h22.131l0.016-0.825c0.053-3.266-1.438-6.664-3.988-9.091
	C41.467,23.642,38.318,22.386,34.999,22.386L34.999,22.386z M26.046,32.548c1.092-4.01,4.714-6.826,8.953-6.826
	c4.224,0,7.858,2.816,8.991,6.826H26.046L26.046,32.548z"/>
<path id="Fill-1-Copy_1_" fill="#2A5571" d="M34.999,92.386c-7.084,0-12.85,5.698-12.85,12.701c0,7.024,5.768,12.527,13.128,12.527
	c5.945,0,10.211-2.87,12.016-8.082l0.379-1.099h-3.67l-0.214,0.551c-1.39,3.543-4.251,5.338-8.511,5.338
	c-5.147,0-9.128-3.592-9.574-8.483h22.131l0.016-0.825c0.053-3.266-1.438-6.664-3.988-9.091
	C41.467,93.643,38.318,92.386,34.999,92.386L34.999,92.386z M26.046,102.548c1.092-4.01,4.714-6.825,8.953-6.825
	c4.224,0,7.858,2.815,8.991,6.825H26.046L26.046,102.548z"/>
</svg>
