<?xml version="1.0" encoding="UTF-8"?>
<svg width="28px" height="18px" viewBox="0 0 28 18" version="1.1" xmlns="http://www.w3.org/2000/svg" xmlns:xlink="http://www.w3.org/1999/xlink">
    <!-- Generator: Sketch 40.3 (33839) - http://www.bohemiancoding.com/sketch -->
    <title>Footer Google+</title>
    <desc>Created with Sketch.</desc>
    <defs></defs>
    <g id="Page-1" stroke="none" stroke-width="1" fill="none" fill-rule="evenodd">
        <g id="Eventlokale-Styleguide" transform="translate(-503.000000, -9007.000000)">
            <g id="Google+" transform="translate(474.000000, 8973.000000)">
                <g id="Group-16">
                    <rect id="Base-Copy" fill="#FF4A5D" opacity="0" x="0" y="0" width="85" height="85"></rect>
                    <path d="M37.9090909,41.7142857 L37.9090909,44.8 L42.9618182,44.8 C42.7581818,46.1242857 41.4345455,48.6828571 37.9090909,48.6828571 C34.8672727,48.6828571 32.3854545,46.1371429 32.3854545,43 C32.3854545,39.8628571 34.8672727,37.3171429 37.9090909,37.3171429 C39.64,37.3171429 40.7981818,38.0628571 41.46,38.7057143 L43.8781818,36.3528571 C42.3254545,34.8871429 40.3145455,34 37.9090909,34 C32.9836364,34 29,38.0242857 29,43 C29,47.9757143 32.9836364,52 37.9090909,52 C43.0509091,52 46.4618182,48.3485714 46.4618182,43.2057143 C46.4618182,42.6142857 46.3981818,42.1642857 46.3218182,41.7142857 L37.9090909,41.7142857 Z M57,41.7142857 L54.4545455,41.7142857 L54.4545455,39.1428571 L51.9090909,39.1428571 L51.9090909,41.7142857 L49.3636364,41.7142857 L49.3636364,44.2857143 L51.9090909,44.2857143 L51.9090909,46.8571429 L54.4545455,46.8571429 L54.4545455,44.2857143 L57,44.2857143 L57,41.7142857 Z" id="Google+-Icon-Copy" fill="#2A5571"></path>
                </g>
            </g>
        </g>
    </g>
</svg>