<?xml version="1.0" encoding="UTF-8"?>
<svg width="24px" height="20px" viewBox="0 0 24 20" version="1.1" xmlns="http://www.w3.org/2000/svg" xmlns:xlink="http://www.w3.org/1999/xlink">
    <!-- Generator: Sketch 40.3 (33839) - http://www.bohemiancoding.com/sketch -->
    <title>Footer Twitter</title>
    <desc>Created with Sketch.</desc>
    <defs></defs>
    <g id="Page-1" stroke="none" stroke-width="1" fill="none" fill-rule="evenodd">
        <g id="Eventlokale-Styleguide" transform="translate(-334.000000, -9006.000000)">
            <g id="Twitter" transform="translate(304.000000, 8973.000000)">
                <g id="Group-13">
                    <rect id="Base-Copy-3" fill="#1CCAE4" opacity="0" x="0" y="0" width="85" height="85"></rect>
                    <path d="M51.5444653,37.8530735 C51.5534709,38.0674663 51.5564728,38.2818591 51.5564728,38.4865067 C51.5564728,44.9962519 46.6043777,52.5 37.5477173,52.5 C34.8636305,52.4985836 32.2390913,51.7293632 30,50.2878561 C30.3897699,50.3303486 30.781541,50.3531179 31.1737336,50.356072 C33.4012085,50.3561116 35.5608038,49.6093796 37.289556,48.2413793 C35.160488,48.1903159 33.3050059,46.8153783 32.6866792,44.8305847 C32.9924953,44.8894622 33.3035257,44.9188396 33.6152595,44.9182909 C34.0551849,44.9198102 34.4931219,44.8607551 34.9160725,44.7428786 C32.5909195,44.2508807 30.9401949,42.2362348 30.9636023,39.9190405 L30.9636023,39.8605697 C31.6475057,40.2340486 32.412523,40.4444401 33.1959975,40.4745127 C31.0250277,38.9908685 30.3655563,36.144338 31.672045,33.8965517 C34.1351485,36.9561353 37.8342024,38.8316349 41.8203877,39.041979 C41.7355433,38.674152 41.692922,38.2982832 41.6933083,37.9212894 C41.6577097,35.2380686 43.8622678,33.0347588 46.6173859,33 C47.9854539,33.0006247 49.2897865,33.5632342 50.209631,34.5494753 C51.3166807,34.3367645 52.3761263,33.9342082 53.3385866,33.3605697 C52.9783431,34.4927257 52.208143,35.4589219 51.171232,36.0794603 C52.1490738,35.9654418 53.1031252,35.7057914 54,35.3095952 C53.3425072,36.2922761 52.5110938,37.1534661 51.5444653,37.8530735 L51.5444653,37.8530735 Z" id="Twitter-Icon-Copy" fill="#2A5571"></path>
                </g>
            </g>
        </g>
    </g>
</svg>